<?xml version="1.0" standalone="no"?><!DOCTYPE svg PUBLIC "-//W3C//DTD SVG 1.1//EN" "http://www.w3.org/Graphics/SVG/1.1/DTD/svg11.dtd"><svg t="1652423609175" class="icon" viewBox="0 0 1024 1024" version="1.1" xmlns="http://www.w3.org/2000/svg" p-id="4170" width="200" height="200" xmlns:xlink="http://www.w3.org/1999/xlink"><defs><style type="text/css"></style></defs><path d="M655.973392-0.044032a116.223186 116.223186 0 0 1 89.189776 40.242919c21.606249 25.548621 29.337395 58.367591 21.094252 89.95777l-49.766051 190.565066 152.370133 476.463865a33.382166 33.382166 0 0 1-11.980716 36.710143l-4.607968 3.071978-323.837733 182.014726a39.628523 39.628523 0 0 1-34.508558 2.047986l-4.607968-2.201585-317.898575-182.065925a33.996562 33.996562 0 0 1-17.407878-34.508559l1.177592-5.119964 152.216534-476.310266-49.663652-190.667465A98.50811 98.50811 0 0 1 273.307271 47.315637l5.529561-7.16795A116.120787 116.120787 0 0 1 368.026608 0.007168z m-6.297556 356.554304H563.199642L563.199642 583.427084c0 15.76949-19.558263 28.825398-44.799687 30.719785L512 614.402867c-28.262202 0-51.199642-13.823903-51.199642-30.975783l-0.051199-226.916812H374.324164l-139.058227 434.940956 273.918083 156.824502 279.498843-157.0805-139.007027-434.684958z m6.297556-286.820392H368.026608a39.321325 39.321325 0 0 0-30.207789 13.567905 33.586965 33.586965 0 0 0-7.16795 30.514987l45.158084 173.054788h272.382094l45.106884-173.054788a33.535765 33.535765 0 0 0-7.16795-30.463787 39.270125 39.270125 0 0 0-30.156589-13.619105z" p-id="4171" fill="#004198"></path></svg>